Coordinates
version=1
nRows=11
nColumns=46
inDegrees=yes

Units are S.I. units (second, meters, Newtons, ...)
Angles are in degrees.

endheader
time	pelvis_tilt	pelvis_list	pelvis_rotation	pelvis_tx	pelvis_ty	pelvis_tz	bb_angle	bb_tx	bb_ty	bb_tz	hip_flexion_r	hip_adduction_r	hip_rotation_r	knee_angle_r	knee_angle_r_beta	ankle_angle_r	subtalar_angle_r	mtp_angle_r	crank_angle_r	hip_flexion_l	hip_adduction_l	hip_rotation_l	knee_angle_l	knee_angle_l_beta	ankle_angle_l	subtalar_angle_l	mtp_angle_l	crank_angle_l	lumbar_extension	lumbar_bending	lumbar_rotation	arm_flex_r	arm_add_r	arm_rot_r	elbow_flex_r	pro_sup_r	wrist_flex_r	wrist_dev_r	arm_flex_l	arm_add_l	arm_rot_l	elbow_flex_l	pro_sup_l	wrist_flex_l	wrist_dev_l
      7.50000000	     29.63654317	     13.76581980	     23.12978071	      0.08562839	      1.04077465	     -0.29586771	      0.00000000	      0.50000000	      0.00000000	      0.25000000	     -2.25093329	    -33.20431145	    -39.87589161	     65.30822080	      1.13984348	     17.08663928	     16.41352875	      0.00000000	      0.00000000	     46.98122572	     24.14107816	     11.93927451	    129.95267682	      2.26810208	     -0.44277374	     -7.78548193	      0.00000000	      0.00000000	    -89.95531833	     17.16341326	      5.31817472	    -62.63913946	   -119.85786982	    -75.07603153	     69.92521629	     21.86622734	      0.00000000	      0.00000000	     89.85030343	     12.96551230	     46.83434103	     29.22836161	     17.74698506	      0.00000000	      0.00000000
      7.50500000	     29.93453000	     12.40324599	     22.52868000	      0.08676173	      1.04101293	     -0.29343475	      0.00000000	      0.50000000	      0.00000000	      0.25000000	     -2.90914022	    -30.80156819	    -39.88320427	     63.85954544	      1.11455933	     16.36315206	     16.12272113	      0.00000000	      0.00000000	     48.73792961	     22.22032662	     12.35239373	    130.94292867	      2.28538524	     -0.12280205	     -6.42534235	      0.00000000	      0.00000000	    -89.95597803	     16.44107454	      6.97912662	    -62.96568282	   -119.85724078	    -74.86824116	     69.00223378	     22.52703610	      0.00000000	      0.00000000	     89.85248456	     13.64922073	     47.33655622	     28.45997365	     18.15842377	      0.00000000	      0.00000000
      7.51000000	     30.21072999	     11.02038271	     22.00211184	      0.08778080	      1.04115930	     -0.29103642	      0.00000000	      0.50000000	      0.00000000	      0.25000000	     -3.48033788	    -28.49072785	    -39.88856518	     62.62343401	      1.09298511	     15.58188825	     15.96972359	      0.00000000	      0.00000000	     50.45840341	     20.37701119	     12.87921901	    131.83408954	      2.30093893	      0.24670242	     -5.56082801	      0.00000000	      0.00000000	    -89.95687974	     15.78169913	      8.61143318	    -63.24580290	   -119.85613201	    -74.71824133	     68.27753238	     22.49563167	      0.00000000	      0.00000000	     89.85006571	     14.07252454	     47.60906642	     28.28909648	     17.99986225	      0.00000000	      0.00000000
      7.51500000	     30.52841953	      9.63933223	     21.59641778	      0.08884268	      1.04154974	     -0.28875168	      0.00000000	      0.50000000	      0.00000000	      0.25000000	     -4.16733839	    -26.16664152	    -39.89187349	     61.35254017	      1.07080383	     14.75834850	     15.83228997	      0.00000000	      0.00000000	     52.03248058	     18.61468192	     13.59040711	    132.57871236	      2.31393505	      0.51713957	     -4.68141861	      0.00000000	      0.00000000	    -89.95790954	     15.23431458	     10.24343104	    -63.60590693	   -119.85437734	    -74.63907434	     67.62695863	     22.33019487	      0.00000000	      0.00000000	     89.84778465	     14.61450888	     47.91008487	     27.91542001	     17.78819240	      0.00000000	      0.00000000
      7.52000000	     30.84678329	      8.24413844	     21.25370496	      0.08983522	      1.04197026	     -0.28657006	      0.00000000	      0.50000000	      0.00000000	      0.25000000	     -4.78691177	    -23.91303960	    -39.89406258	     60.27869032	      1.05206161	     13.80319190	     15.61350601	      0.00000000	      0.00000000	     53.54167793	     16.93685750	     14.44340983	    133.20050129	      2.32478731	      0.80525201	     -3.75866117	      0.00000000	      0.00000000	    -89.95889628	     14.74379179	     11.87680246	    -63.84562630	   -119.85313362	    -74.25971313	     66.92431594	     21.82174283	      0.00000000	      0.00000000	     89.84401751	     15.15955358	     47.81378864	     27.77733418	     17.18776160	      0.00000000	      0.00000000
      7.52500000	     31.15730363	      6.98271748	     20.97228889	      0.09076631	      1.04251614	     -0.28450330	      0.00000000	      0.50000000	      0.00000000	      0.25000000	     -5.39589704	    -21.90062285	    -39.89562758	     59.40156846	      1.03675295	     12.71870641	     15.37454029	      0.00000000	      0.00000000	     54.96890426	     15.42411525	     15.21728774	    133.63962579	      2.33245148	      0.98905346	     -3.04846051	      0.00000000	      0.00000000	    -89.95983992	     14.29950526	     13.37424365	    -64.18507327	   -119.85165352	    -74.05247634	     66.26803506	     21.40619743	      0.00000000	      0.00000000	     89.83981715	     15.69083601	     47.91509210	     27.55971548	     16.71426088	      0.00000000	      0.00000000
      7.53000000	     31.43774953	      5.91336134	     20.77580127	      0.09155467	      1.04327458	     -0.28264495	      0.00000000	      0.50000000	      0.00000000	      0.25000000	     -5.99759292	    -20.19711141	    -39.89685829	     58.72526044	      1.02494915	     11.61405697	     15.14308302	      0.00000000	      0.00000000	     56.22302464	     14.18914968	     15.96765756	    133.91009068	      2.33717198	      1.34055373	     -2.18500400	      0.00000000	      0.00000000	    -89.96074150	     13.94559220	     14.65784493	    -64.56361698	   -119.85025118	    -73.95481550	     65.68494953	     20.99832797	      0.00000000	      0.00000000	     89.83642906	     16.15305029	     48.10000695	     27.29350162	     16.22660241	      0.00000000	      0.00000000
      7.53500000	     31.52461316	      5.78563737	     20.60631231	      0.09177107	      1.04412333	     -0.28150707	      0.00000000	      0.50000000	      0.00000000	      0.25000000	     -6.58260055	    -19.90748494	    -39.90068332	     58.72479261	      1.02494098	     10.64199168	     15.31895516	      0.00000000	      0.00000000	     57.29847207	     13.99695793	     15.72689976	    133.85353994	      2.33618499	      1.49846789	     -2.09229806	      0.00000000	      0.00000000	    -89.96109002	     13.68913929	     14.96234938	    -64.70788184	   -119.84872233	    -73.87853365	     65.53039627	     20.94488463	      0.00000000	      0.00000000	     89.83394101	     16.32007234	     48.11598338	     27.30239092	     16.19160089	      0.00000000	      0.00000000
      7.54000000	     31.58595070	      5.61558346	     20.53385578	      0.09188786	      1.04507441	     -0.28065691	      0.00000000	      0.50000000	      0.00000000	      0.25000000	     -7.05330113	    -19.63035962	    -39.90340993	     58.87105196	      1.02749369	      9.54127154	     15.37027811	      0.00000000	      0.00000000	     58.25813424	     13.84759603	     15.57287986	    133.66063796	      2.33281821	      1.77972966	     -2.01393193	      0.00000000	      0.00000000	    -89.96141788	     13.54200209	     15.31105291	    -64.86750505	   -119.84714343	    -73.79213817	     65.26885772	     20.87738409	      0.00000000	      0.00000000	     89.83159300	     16.51845407	     48.12071755	     27.27895803	     16.15705029	      0.00000000	      0.00000000
      7.54500000	     31.70172022	      5.34580846	     20.57144278	      0.09176100	      1.04619603	     -0.27989886	      0.00000000	      0.50000000	      0.00000000	      0.25000000	     -7.47547828	    -19.18052410	    -39.90386393	     59.05040166	      1.03062393	      8.31973547	     14.86131048	      0.00000000	      0.00000000	     59.02029524	     13.72254164	     15.64335775	    133.36370282	      2.32763572	      2.27831276	     -1.63556798	      0.00000000	      0.00000000	    -89.96184006	     13.48736322	     15.91165059	    -65.12967862	   -119.84696235	    -73.61702585	     64.24320147	     20.57319464	      0.00000000	      0.00000000	     89.82948399	     17.07308006	     47.93891168	     26.86356758	     15.85925964	      0.00000000	      0.00000000
      7.55000000	     31.59612338	      5.78286916	     20.66132029	      0.09115453	      1.04743182	     -0.27966260	      0.00000000	      0.50000000	      0.00000000	      0.25000000	     -7.74768923	    -19.77100590	    -39.90599713	     59.78567791	      1.04345693	      7.07469812	     14.31020731	      0.00000000	      0.00000000	     59.60424633	     14.34793553	     14.98233706	    132.74158311	      2.31677768	      2.86172679	     -1.56907960	      0.00000000	      0.00000000	    -89.96201858	     13.51901984	     15.68306665	    -65.16936201	   -119.84587670	    -73.61038835	     63.94592734	     20.48391684	      0.00000000	      0.00000000	     89.82786797	     17.22603403	     47.87350487	     26.87512544	     15.78847840	      0.00000000	      0.00000000
